<svg id="Layer_1" data-name="Layer 1" xmlns="http://www.w3.org/2000/svg" viewBox="0 0 635.47 580"><defs><style>.cls-1{fill:#ff1105;}</style></defs><title>WWE Logo Vector</title><path class="cls-1" d="M182.26,758.18C236.4,705.73,365.9,663.65,502.15,646c25.29-3.27,50.49-5.79,75.13-7.67.92-.07,8.37-.4,8.37-.4L597,664.05,610.7,636.3l10.92-.71c69.52-3.39,131.71-2,174.62,1-11.08,23.92-35.45,75.88-35.45,75.88C720.48,699.29,595.32,684.81,474,694.76,326.34,706.87,197.37,752.45,182.26,758.18Z" transform="translate(-182.26 -210)"/><polygon points="414.93 450.96 322.94 225.12 230.95 450.96 10.41 0 95.88 237.7 228.19 580 322.94 365.43 417.69 580 550 237.7 635.47 0 414.93 450.96"/><polygon points="589.3 0.68 418.97 224.47 323.24 6.83 227.52 224.47 57.18 0.68 228.79 339.27 323.24 96.88 417.69 339.27 589.3 0.68"/><path d="M646.48,727.26V714.64h-4.71V713h11.34v1.69h-4.73v12.62Z" transform="translate(-182.26 -210)"/><path d="M655,727.26V713h2.85l3.39,10.13c.31.95.54,1.65.68,2.12.16-.52.42-1.28.76-2.29l3.43-10h2.55v14.31h-1.83v-12l-4.16,12H661l-4.14-12.18v12.18Z" transform="translate(-182.26 -210)"/></svg>